<svg width="137" height="83" xmlns="http://www.w3.org/2000/svg">
 <defs>
  <!-- Add any necessary definitions here -->
 </defs>
 <g>
  <title>Layer 1</title>
  <g transform="matrix(0.19278 0 0 0.19278 -1.9278 -2.4658)" fill="#eac65a" id="svg_1">
   <path d="m377.58469,169.62567c0,0 -48,-31 -75,-61.99998l-32,0c-6,0 -6,-10 0,-10c18,0 36,0 54,0c2,0 4,-1 5,-2l6,-11.00002l14,49c1,5 8,5 9,0l21,-72l17,52.00002c1,4 6,4 8,1l12,-17l21,0c7,0 7,-10.00002 0,-10.00002l-24,0c-1,0 -3,1 -4,3l-7,11.00002l-19,-57.00002c-1,-4.99999 -7,-4.99999 -9,0l-20,71.00002l-13,-44.00001c-1,-4 -6,-5 -9,-1l-10,16.99999l-33.00003,0c-2.99997,-5 -3.99997,-9.99999 -3.99997,-14.99999c0,-61 69,-77 92,-38c23,-39 93,-23 93,38c0,38.00001 -93,96.99999 -93,96.99999zm140.99997,53.00002l-69.99997,47.99998c-52,37 -72,30 -86,28c-15,-3 -41,-14 -51,-10c-6,3 -48,34 -53,33c-35,-8 -46,-20 -47,-39c0,-15 24,-63.99998 28,-67.99998c36,-29 70,-22 130,9c0,0 42,-4 50,1c6,3 13,15 1,18c-1,0 -40,3 -52,13.99998c-5,5 -24,8 -30,6c-23,-10.99998 -22,-4 -1,5c7,2 29,0 35,-7c12,-10.99998 47,-10.99998 52,-14.99998c16,-5 8,-21 -2,-27c-7,-3 -28,-2 -45,-1l65,-37c5,-3 11,-2 15,1l12,-7c7.99994,-5 17.99994,0 19.99994,9l4,-2c11,-7 24.00003,4 20.00003,16c12,2 15,18 5,25z" id="svg_2"/>
  </g>
  <g transform="matrix(0.862453 0 0 0.862453 48.5493 83.5811)" fill="#eac65a" id="svg_3">
   <path d="m-51.59351,-26.32946l3.34,9.82l0,0l3.16,-9.82l4.42,0l0,14.27999l-2.93999,0l0,-10.12l0,0l-3.5,10.12l-2.42,0l-3.5,-10.02l0,0l0,10.02l-2.94,0l0,-14.27999l4.42,0l-0.04,0l-0.00001,0zm20.84,0l5.33999,14.27999l-3.26,0l-1.07999,-3.18l-5.34,0l-1.12,3.18l-3.18,0l5.42,-14.27999l3.22,0zm-1.66,3.51999l-1.85999,5.24001l3.7,0l-1.8,-5.24001l0,0l-0.04,0l-0.00001,0zm15.36,-3.51999l5.34,14.27999l-3.26,0l-1.08,-3.18l-5.34,0l-1.12,3.18l-3.18,0l5.42,-14.27999l3.22,0zm-1.66,3.51999l-1.86,5.24001l3.7,0l-1.8,-5.24001l0,0l-0.04,0zm13.16,-3.85999c1.75,0 3.14,0.39999 4.17,1.2s1.55,1.93 1.55,3.4l-3.04001,0c-0.03999,-0.72 -0.28,-1.26 -0.73,-1.62s-1.14,-0.54 -2.07001,-0.54c-0.64999,0 -1.17999,0.14 -1.58,0.43s-0.59999,0.68 -0.59999,1.18999c0,0.41001 0.12,0.71 0.37,0.90001s0.60001,0.35 1.05,0.5s1.25,0.36 2.38,0.64c1.18999,0.29 2.09999,0.61 2.73999,0.96s1.13,0.79 1.46001,1.33s0.5,1.2 0.5,1.99c0,0.91 -0.24001,1.71 -0.72,2.42s-1.18001,1.24 -2.10001,1.61s-1.95999,0.55 -3.12,0.55c-1.77,0 -3.23,-0.44 -4.37,-1.33s-1.71,-2.1 -1.71,-3.65l0,-0.1l3.04001,0c0,0.84 0.28999,1.49 0.85999,1.95s1.33,0.69 2.28001,0.69c0.84,0 1.51999,-0.15 2.03,-0.45s0.76999,-0.74001 0.76999,-1.33c0,-0.39 -0.14,-0.71 -0.42,-0.98s-0.64999,-0.48 -1.12,-0.64999s-1.25,-0.38 -2.36,-0.63c-1.28,-0.32 -2.21,-0.66 -2.8,-1.02s-1.03,-0.8 -1.34,-1.31001s-0.46,-1.13 -0.46,-1.85c0,-0.89 0.25999,-1.67 0.77,-2.34s1.18,-1.16 2.00999,-1.48s1.68001,-0.48 2.56001,-0.48l0.00002,0zm11.2,0.34l0,5.48l5.78,0l0,-5.48l3.14,0l0,14.27999l-3.14,0l0,-6.16l-5.78,0l0,6.16l-3.14,0l0,-14.27999l3.14,0zm18.79999,0l5.34001,14.27999l-3.25999,0l-1.08002,-3.18l-5.34,0l-1.12,3.18l-3.17999,0l5.42,-14.27999l3.21999,0zm-1.65999,3.51999l-1.86,5.24001l3.7,0l-1.8,-5.24001l0,0l-0.03999,0l-0.00001,0zm24.37999,-3.51999l0,2.64l-4.28,0l0,11.64l-3.13998,0l0,-11.64l-4.28001,0l0,-2.64l11.7,0l-0.00001,0zm9.34001,0c1.2,0 2.2,0.37 2.98999,1.11s1.19002,1.68 1.19002,2.83c0,1.79 -0.75,2.98 -2.26001,3.57999l0.03999,0c0.51001,0.15 0.90001,0.39001 1.19002,0.73s0.49998,0.74 0.64998,1.19s0.24001,1.18 0.28001,2.18c0.05,1.31 0.23999,2.18 0.56,2.62l-3.14,0c-0.17,-0.43999 -0.31,-1.27 -0.40001,-2.48c-0.11,-1.28 -0.34,-2.12 -0.69998,-2.51s-0.95001,-0.59 -1.76001,-0.59l-3.16,0l0,5.57999l-3.14,0l0,-14.28l7.7,0l-0.03999,0.04l-0.00001,0.00002zm-1.10001,6.46c0.67,0 1.19,-0.15 1.57001,-0.45s0.56999,-0.83 0.56999,-1.59c0,-0.72 -0.19,-1.23 -0.56,-1.53s-0.91,-0.45 -1.60001,-0.45l-3.44,0l0,4.02l3.46001,0zm10.91999,-6.46l0,8.94c0,1.05 0.24001,1.82 0.71001,2.31s1.21999,0.73 2.23,0.73c1.09,0 1.86002,-0.24001 2.3,-0.73s0.65999,-1.26 0.65999,-2.31l0,-8.94l3.14,0l0,8.94c0,1.79 -0.50999,3.18 -1.52998,4.18s-2.54001,1.5 -4.57001,1.5c-2.07001,0 -3.59999,-0.5 -4.59,-1.5s-1.48999,-2.39 -1.48999,-4.18l0,-8.94l3.13998,0zm16.66,-0.34c1.75,0 3.14001,0.39999 4.17,1.2s1.55002,1.93 1.55002,3.4l-3.04001,0c-0.03999,-0.72 -0.28001,-1.26 -0.73,-1.62s-1.14001,-0.54 -2.07001,-0.54c-0.64999,0 -1.17999,0.14 -1.57997,0.43s-0.59999,0.68 -0.59999,1.18999c0,0.41001 0.12,0.71 0.36998,0.90001s0.60001,0.35 1.05,0.5s1.25,0.36 2.38,0.64c1.19,0.29 2.09999,0.61 2.74001,0.96s1.13,0.79 1.46001,1.33s0.49998,1.2 0.49998,1.99c0,0.91 -0.23999,1.71 -0.72,2.42s-1.17999,1.24 -2.10001,1.61s-1.96001,0.55 -3.12,0.55c-1.76999,0 -3.23,-0.44 -4.37,-1.33s-1.71001,-2.1 -1.71001,-3.65l0,-0.1l3.03999,0c0,0.84 0.29001,1.49 0.86002,1.95s1.32999,0.69 2.27998,0.69c0.84001,0 1.52,-0.15 2.03001,-0.45s0.76999,-0.74001 0.76999,-1.33c0,-0.39 -0.13998,-0.71 -0.41998,-0.98s-0.65001,-0.48 -1.12,-0.64999s-1.25002,-0.38 -2.36002,-0.63c-1.28,-0.32 -2.20999,-0.66 -2.8,-1.02s-1.03,-0.8 -1.34,-1.31001s-0.46001,-1.13 -0.46001,-1.85c0,-0.89 0.26001,-1.67 0.77002,-2.34s1.17999,-1.16 2.00998,-1.48s1.68002,-0.48 2.56001,-0.48l0.00003,0zm18.64001,0.34l0,2.64l-4.28001,0l0,11.64l-3.14001,0l0,-11.64l-4.28,0l0,-2.64l11.70001,0z" id="svg_4"/>
  </g>
  <text x="-0.91463" y="81.0664" id="svg_10" fill="#eac65a" stroke-width="0" font-size="10" font-family="'Asap'" text-anchor="start" xml:space="preserve" stroke="null" font-weight="normal" font-style="normal">Public service with proper attitude</text>
 </g>
</svg>